REM MD5 7e710403643e677133c7507a19a20939
FILE "Family Games Compendium (Europe) (En,Fr,De,It) (Disc 3).bin" BINARY
  TRACK 01 MODE2/2352
    INDEX 01 00:00:00
  TRACK 02 AUDIO
    INDEX 00 05:26:07
    INDEX 01 05:28:07
  TRACK 03 AUDIO
    INDEX 00 11:09:36
    INDEX 01 11:11:36
REM LEADOUT 16:34:01
